# xmcd
#
# Track frame offsets:
#	150
#	17348
#	30097
#	46434
#	61216
#
# Disc length: 1118 seconds
#
# Revision: 0
# Processed by: cddbd v1.5.2PL0 Copyright (c) Steve Scherf et al.
# Submitted via: dBpowerAMP V4.0
#
DISCID=2c045c05
DTITLE=Josh Grider - JG3 EP
DYEAR=1900
DGENRE=Country
TTITLE0=Rock And Roll Tonight
TTITLE1=Holes In My Boots
TTITLE2=Maps
TTITLE3=Deadman Walkin'
TTITLE4=Dollar Tree
EXTD=
EXTT0=
EXTT1=
EXTT2=
EXTT3=
EXTT4=
PLAYORDER=
